<mxfile host="app.diagrams.net" modified="2022-10-10T02:35:15.713Z" agent="5.0 (Windows NT 10.0; Win64; x64) AppleWebKit/537.36 (KHTML, like Gecko) Chrome/106.0.0.0 Safari/537.36 Edg/106.0.1370.37" etag="Iq8wVq_v2O5lU2PveIbR" version="20.4.0" type="github">
  <diagram id="lAhGGrDka4dRtQxsRVGI" name="Page-1">
    <mxGraphModel dx="1510" dy="839" grid="1" gridSize="10" guides="1" tooltips="1" connect="1" arrows="1" fold="1" page="1" pageScale="1" pageWidth="850" pageHeight="1100" math="0" shadow="0">
      <root>
        <mxCell id="0" />
        <mxCell id="1" parent="0" />
        <mxCell id="Y3Hv_cEfj4ZHY67eaT1q-1" value="&lt;span style=&quot;color: rgba(0, 0, 0, 0); font-family: monospace; font-size: 0px;&quot;&gt;%3CmxGraphModel%3E%3Croot%3E%3CmxCell%20id%3D%220%22%2F%3E%3CmxCell%20id%3D%221%22%20parent%3D%220%22%2F%3E%3CmxCell%20id%3D%222%22%20value%3D%22Price%22%20style%3D%22text%3Bhtml%3D1%3Balign%3Dcenter%3BverticalAlign%3Dmiddle%3Bresizable%3D0%3Bpoints%3D%5B%5D%3Bautosize%3D1%3BstrokeColor%3Dnone%3BfillColor%3Dnone%3BfontSize%3D20%3B%22%20vertex%3D%221%22%20parent%3D%221%22%3E%3CmxGeometry%20x%3D%22770%22%20y%3D%22780%22%20width%3D%2270%22%20height%3D%2240%22%20as%3D%22geometry%22%2F%3E%3C%2FmxCell%3E%3C%2Froot%3E%3C%2FmxGraphModel%3E&lt;/span&gt;" style="strokeWidth=1;shadow=0;dashed=0;align=left;html=1;shape=mxgraph.mockup.containers.browserWindow;rSize=0;strokeColor=#666666;mainText=,;recursiveResize=0;rounded=0;labelBackgroundColor=none;fontFamily=Verdana;fontSize=12" vertex="1" parent="1">
          <mxGeometry x="30" y="20" width="1470" height="1275" as="geometry" />
        </mxCell>
        <mxCell id="Y3Hv_cEfj4ZHY67eaT1q-2" value="Page 1" style="strokeWidth=1;shadow=0;dashed=0;align=center;html=1;shape=mxgraph.mockup.containers.anchor;fontSize=17;fontColor=#666666;align=left;" vertex="1" parent="Y3Hv_cEfj4ZHY67eaT1q-1">
          <mxGeometry x="60" y="12" width="110" height="26" as="geometry" />
        </mxCell>
        <mxCell id="Y3Hv_cEfj4ZHY67eaT1q-3" value="https://www.AutoQuotes.com" style="strokeWidth=1;shadow=0;dashed=0;align=center;html=1;shape=mxgraph.mockup.containers.anchor;rSize=0;fontSize=17;fontColor=#666666;align=left;" vertex="1" parent="Y3Hv_cEfj4ZHY67eaT1q-1">
          <mxGeometry x="130" y="60" width="250" height="26" as="geometry" />
        </mxCell>
        <mxCell id="Y3Hv_cEfj4ZHY67eaT1q-4" value="&lt;font style=&quot;font-size: 32px;&quot;&gt;Mechanic Shop Logo&lt;/font&gt;" style="text;html=1;points=[];align=left;verticalAlign=top;spacingTop=-4;fontSize=30;fontFamily=Verdana" vertex="1" parent="Y3Hv_cEfj4ZHY67eaT1q-1">
          <mxGeometry x="30" y="140" width="340" height="50" as="geometry" />
        </mxCell>
        <mxCell id="Y3Hv_cEfj4ZHY67eaT1q-5" value="" style="verticalLabelPosition=bottom;shadow=0;dashed=0;align=center;html=1;verticalAlign=top;strokeWidth=1;shape=mxgraph.mockup.markup.line;strokeColor=#999999;rounded=0;labelBackgroundColor=none;fillColor=#ffffff;fontFamily=Verdana;fontSize=12;fontColor=#000000;" vertex="1" parent="Y3Hv_cEfj4ZHY67eaT1q-1">
          <mxGeometry y="190" width="1470" height="20" as="geometry" />
        </mxCell>
        <mxCell id="Y3Hv_cEfj4ZHY67eaT1q-6" value="" style="verticalLabelPosition=bottom;shadow=0;dashed=0;align=center;html=1;verticalAlign=top;strokeWidth=1;shape=mxgraph.mockup.markup.line;strokeColor=#999999;rounded=0;labelBackgroundColor=none;fillColor=#ffffff;fontFamily=Verdana;fontSize=12;fontColor=#000000;" vertex="1" parent="Y3Hv_cEfj4ZHY67eaT1q-1">
          <mxGeometry y="1090" width="1470" height="20" as="geometry" />
        </mxCell>
        <mxCell id="Y3Hv_cEfj4ZHY67eaT1q-7" value="Option 1" style="strokeWidth=1;shadow=0;dashed=0;align=center;html=1;shape=mxgraph.mockup.forms.comboBox;strokeColor=#999999;fillColor=#ddeeff;align=left;fillColor2=#aaddff;mainText=;fontColor=#666666;fontSize=17;spacingLeft=3;" vertex="1" parent="Y3Hv_cEfj4ZHY67eaT1q-1">
          <mxGeometry x="130" y="270" width="140" height="40" as="geometry" />
        </mxCell>
        <mxCell id="Y3Hv_cEfj4ZHY67eaT1q-8" value="&lt;font style=&quot;font-size: 22px;&quot;&gt;Vehicle Specifications&lt;/font&gt;" style="text;html=1;align=center;verticalAlign=middle;resizable=0;points=[];autosize=1;strokeColor=none;fillColor=none;" vertex="1" parent="Y3Hv_cEfj4ZHY67eaT1q-1">
          <mxGeometry x="30" y="220" width="240" height="40" as="geometry" />
        </mxCell>
        <mxCell id="Y3Hv_cEfj4ZHY67eaT1q-9" value="&lt;font style=&quot;font-size: 18px;&quot;&gt;Make&lt;/font&gt;" style="text;html=1;align=center;verticalAlign=middle;resizable=0;points=[];autosize=1;strokeColor=none;fillColor=none;fontSize=22;" vertex="1" parent="Y3Hv_cEfj4ZHY67eaT1q-1">
          <mxGeometry x="60" y="270" width="70" height="40" as="geometry" />
        </mxCell>
        <mxCell id="Y3Hv_cEfj4ZHY67eaT1q-10" value="&lt;font style=&quot;font-size: 18px;&quot;&gt;Model&lt;/font&gt;" style="text;html=1;align=center;verticalAlign=middle;resizable=0;points=[];autosize=1;strokeColor=none;fillColor=none;fontSize=22;" vertex="1" parent="Y3Hv_cEfj4ZHY67eaT1q-1">
          <mxGeometry x="310" y="270" width="70" height="40" as="geometry" />
        </mxCell>
        <mxCell id="Y3Hv_cEfj4ZHY67eaT1q-11" value="Option 2" style="strokeWidth=1;shadow=0;dashed=0;align=center;html=1;shape=mxgraph.mockup.forms.comboBox;strokeColor=#999999;fillColor=#ddeeff;align=left;fillColor2=#aaddff;mainText=;fontColor=#666666;fontSize=17;spacingLeft=3;" vertex="1" parent="Y3Hv_cEfj4ZHY67eaT1q-1">
          <mxGeometry x="385" y="270" width="140" height="40" as="geometry" />
        </mxCell>
        <mxCell id="Y3Hv_cEfj4ZHY67eaT1q-12" value="&lt;span style=&quot;font-size: 18px;&quot;&gt;Year&lt;/span&gt;" style="text;html=1;align=center;verticalAlign=middle;resizable=0;points=[];autosize=1;strokeColor=none;fillColor=none;fontSize=22;" vertex="1" parent="Y3Hv_cEfj4ZHY67eaT1q-1">
          <mxGeometry x="560" y="270" width="60" height="40" as="geometry" />
        </mxCell>
        <mxCell id="Y3Hv_cEfj4ZHY67eaT1q-13" value="Option 3" style="strokeWidth=1;shadow=0;dashed=0;align=center;html=1;shape=mxgraph.mockup.forms.comboBox;strokeColor=#999999;fillColor=#ddeeff;align=left;fillColor2=#aaddff;mainText=;fontColor=#666666;fontSize=17;spacingLeft=3;" vertex="1" parent="Y3Hv_cEfj4ZHY67eaT1q-1">
          <mxGeometry x="620" y="270" width="140" height="40" as="geometry" />
        </mxCell>
        <mxCell id="Y3Hv_cEfj4ZHY67eaT1q-14" value="&lt;span style=&quot;font-size: 18px;&quot;&gt;Engine&lt;/span&gt;" style="text;html=1;align=center;verticalAlign=middle;resizable=0;points=[];autosize=1;strokeColor=none;fillColor=none;fontSize=22;" vertex="1" parent="Y3Hv_cEfj4ZHY67eaT1q-1">
          <mxGeometry x="800" y="270" width="80" height="40" as="geometry" />
        </mxCell>
        <mxCell id="Y3Hv_cEfj4ZHY67eaT1q-15" value="Option 4" style="strokeWidth=1;shadow=0;dashed=0;align=center;html=1;shape=mxgraph.mockup.forms.comboBox;strokeColor=#999999;fillColor=#ddeeff;align=left;fillColor2=#aaddff;mainText=;fontColor=#666666;fontSize=17;spacingLeft=3;" vertex="1" parent="Y3Hv_cEfj4ZHY67eaT1q-1">
          <mxGeometry x="880" y="270" width="140" height="40" as="geometry" />
        </mxCell>
        <mxCell id="Y3Hv_cEfj4ZHY67eaT1q-16" value="&lt;span style=&quot;font-size: 18px;&quot;&gt;Body&lt;/span&gt;" style="text;html=1;align=center;verticalAlign=middle;resizable=0;points=[];autosize=1;strokeColor=none;fillColor=none;fontSize=22;" vertex="1" parent="Y3Hv_cEfj4ZHY67eaT1q-1">
          <mxGeometry x="1070" y="270" width="60" height="40" as="geometry" />
        </mxCell>
        <mxCell id="Y3Hv_cEfj4ZHY67eaT1q-17" value="Option 4" style="strokeWidth=1;shadow=0;dashed=0;align=center;html=1;shape=mxgraph.mockup.forms.comboBox;strokeColor=#999999;fillColor=#ddeeff;align=left;fillColor2=#aaddff;mainText=;fontColor=#666666;fontSize=17;spacingLeft=3;" vertex="1" parent="Y3Hv_cEfj4ZHY67eaT1q-1">
          <mxGeometry x="1130" y="270" width="140" height="40" as="geometry" />
        </mxCell>
        <mxCell id="Y3Hv_cEfj4ZHY67eaT1q-18" value="" style="strokeWidth=1;shadow=0;dashed=0;align=center;html=1;shape=mxgraph.mockup.containers.marginRect2;rectMarginTop=32;strokeColor=#666666;gradientColor=none;fontSize=20;" vertex="1" parent="Y3Hv_cEfj4ZHY67eaT1q-1">
          <mxGeometry x="20" y="350" width="1450" height="590" as="geometry" />
        </mxCell>
        <mxCell id="Y3Hv_cEfj4ZHY67eaT1q-19" value="&lt;font color=&quot;#fcfcfc&quot;&gt;Custom Quotes&lt;/font&gt;" style="strokeColor=#3853FF;fillColor=#2197FF;strokeWidth=1;shadow=0;dashed=0;align=center;html=1;shape=mxgraph.mockup.containers.rrect;rSize=0;fontSize=17;gradientColor=none;" vertex="1" parent="Y3Hv_cEfj4ZHY67eaT1q-18">
          <mxGeometry width="130" height="25" relative="1" as="geometry">
            <mxPoint x="10" as="offset" />
          </mxGeometry>
        </mxCell>
        <mxCell id="Y3Hv_cEfj4ZHY67eaT1q-20" value="&lt;font color=&quot;#0d0d0d&quot;&gt;Immediate Quotes&lt;/font&gt;" style="strokeWidth=1;shadow=0;dashed=0;align=center;html=1;shape=mxgraph.mockup.containers.rrect;rSize=0;fontSize=17;fontColor=#ffffff;strokeColor=#B3B3B3;fillColor=#FEFFFC;" vertex="1" parent="Y3Hv_cEfj4ZHY67eaT1q-18">
          <mxGeometry width="150" height="25" relative="1" as="geometry">
            <mxPoint x="150" as="offset" />
          </mxGeometry>
        </mxCell>
        <mxCell id="Y3Hv_cEfj4ZHY67eaT1q-21" value="" style="strokeWidth=1;shadow=0;dashed=0;align=center;html=1;shape=mxgraph.mockup.containers.topButton;rSize=5;strokeColor=#008cff;fillColor=#008cff;gradientColor=none;resizeWidth=1;movable=0;deletable=1;fontSize=20;" vertex="1" parent="Y3Hv_cEfj4ZHY67eaT1q-18">
          <mxGeometry width="1310" height="7" relative="1" as="geometry">
            <mxPoint y="25" as="offset" />
          </mxGeometry>
        </mxCell>
        <mxCell id="Y3Hv_cEfj4ZHY67eaT1q-22" value="" style="rounded=0;whiteSpace=wrap;html=1;fontSize=20;" vertex="1" parent="Y3Hv_cEfj4ZHY67eaT1q-18">
          <mxGeometry x="45" y="61.64179104477612" width="1020" height="264.17910447761193" as="geometry" />
        </mxCell>
        <mxCell id="Y3Hv_cEfj4ZHY67eaT1q-23" value="" style="verticalLabelPosition=bottom;shadow=0;dashed=0;align=center;html=1;verticalAlign=top;strokeWidth=1;shape=mxgraph.mockup.forms.splitter;strokeColor=#999999;fontSize=20;" vertex="1" parent="Y3Hv_cEfj4ZHY67eaT1q-18">
          <mxGeometry x="45" y="114.4776119402985" width="1020" height="8.805970149253731" as="geometry" />
        </mxCell>
        <mxCell id="Y3Hv_cEfj4ZHY67eaT1q-24" value="&lt;font style=&quot;font-size: 20px;&quot;&gt;#&lt;/font&gt;" style="text;html=1;align=center;verticalAlign=middle;resizable=0;points=[];autosize=1;strokeColor=none;fillColor=none;fontSize=20;" vertex="1" parent="Y3Hv_cEfj4ZHY67eaT1q-18">
          <mxGeometry x="55" y="70.44776119402985" width="30" height="40" as="geometry" />
        </mxCell>
        <mxCell id="Y3Hv_cEfj4ZHY67eaT1q-25" value="" style="verticalLabelPosition=bottom;shadow=0;dashed=0;align=center;html=1;verticalAlign=top;strokeWidth=1;shape=mxgraph.mockup.markup.line;strokeColor=#999999;direction=north;fontSize=20;" vertex="1" parent="Y3Hv_cEfj4ZHY67eaT1q-18">
          <mxGeometry x="85" y="61.64179104477612" width="20" height="264.17910447761193" as="geometry" />
        </mxCell>
        <mxCell id="Y3Hv_cEfj4ZHY67eaT1q-26" value="Service/Item Description" style="text;html=1;align=center;verticalAlign=middle;resizable=0;points=[];autosize=1;strokeColor=none;fillColor=none;fontSize=20;" vertex="1" parent="Y3Hv_cEfj4ZHY67eaT1q-18">
          <mxGeometry x="115" y="70.44776119402985" width="240" height="40" as="geometry" />
        </mxCell>
        <mxCell id="Y3Hv_cEfj4ZHY67eaT1q-27" value="" style="verticalLabelPosition=bottom;shadow=0;dashed=0;align=center;html=1;verticalAlign=top;strokeWidth=1;shape=mxgraph.mockup.markup.line;strokeColor=#999999;direction=north;fontSize=20;" vertex="1" parent="Y3Hv_cEfj4ZHY67eaT1q-18">
          <mxGeometry x="540" y="61.64179104477612" width="20" height="264.17910447761193" as="geometry" />
        </mxCell>
        <mxCell id="Y3Hv_cEfj4ZHY67eaT1q-28" value="Unit Price" style="text;html=1;align=center;verticalAlign=middle;resizable=0;points=[];autosize=1;strokeColor=none;fillColor=none;fontSize=20;" vertex="1" parent="Y3Hv_cEfj4ZHY67eaT1q-18">
          <mxGeometry x="560" y="70.44776119402985" width="110" height="40" as="geometry" />
        </mxCell>
        <mxCell id="Y3Hv_cEfj4ZHY67eaT1q-29" value="" style="verticalLabelPosition=bottom;shadow=0;dashed=0;align=center;html=1;verticalAlign=top;strokeWidth=1;shape=mxgraph.mockup.markup.line;strokeColor=#999999;direction=north;fontSize=20;" vertex="1" parent="Y3Hv_cEfj4ZHY67eaT1q-18">
          <mxGeometry x="665" y="61.64179104477612" width="20" height="264.17910447761193" as="geometry" />
        </mxCell>
        <mxCell id="Y3Hv_cEfj4ZHY67eaT1q-30" value="Quantity" style="text;html=1;align=center;verticalAlign=middle;resizable=0;points=[];autosize=1;strokeColor=none;fillColor=none;fontSize=20;" vertex="1" parent="Y3Hv_cEfj4ZHY67eaT1q-18">
          <mxGeometry x="670" y="70.44776119402985" width="100" height="40" as="geometry" />
        </mxCell>
        <mxCell id="Y3Hv_cEfj4ZHY67eaT1q-31" value="" style="verticalLabelPosition=bottom;shadow=0;dashed=0;align=center;html=1;verticalAlign=top;strokeWidth=1;shape=mxgraph.mockup.markup.line;strokeColor=#999999;direction=north;fontSize=20;" vertex="1" parent="Y3Hv_cEfj4ZHY67eaT1q-18">
          <mxGeometry x="757.5" y="61.64179104477612" width="20" height="264.17910447761193" as="geometry" />
        </mxCell>
        <mxCell id="Y3Hv_cEfj4ZHY67eaT1q-32" value="Discount" style="text;html=1;align=center;verticalAlign=middle;resizable=0;points=[];autosize=1;strokeColor=none;fillColor=none;fontSize=20;" vertex="1" parent="Y3Hv_cEfj4ZHY67eaT1q-18">
          <mxGeometry x="770" y="70.44776119402985" width="100" height="40" as="geometry" />
        </mxCell>
        <mxCell id="Y3Hv_cEfj4ZHY67eaT1q-33" value="" style="verticalLabelPosition=bottom;shadow=0;dashed=0;align=center;html=1;verticalAlign=top;strokeWidth=1;shape=mxgraph.mockup.markup.line;strokeColor=#999999;direction=north;fontSize=20;" vertex="1" parent="Y3Hv_cEfj4ZHY67eaT1q-18">
          <mxGeometry x="865" y="61.64179104477612" width="20" height="264.17910447761193" as="geometry" />
        </mxCell>
        <mxCell id="Y3Hv_cEfj4ZHY67eaT1q-34" value="Final Price" style="text;html=1;align=center;verticalAlign=middle;resizable=0;points=[];autosize=1;strokeColor=none;fillColor=none;fontSize=20;" vertex="1" parent="Y3Hv_cEfj4ZHY67eaT1q-18">
          <mxGeometry x="905" y="70.44776119402985" width="120" height="40" as="geometry" />
        </mxCell>
        <mxCell id="Y3Hv_cEfj4ZHY67eaT1q-35" value="1" style="text;html=1;align=center;verticalAlign=middle;resizable=0;points=[];autosize=1;strokeColor=none;fillColor=none;fontSize=20;" vertex="1" parent="Y3Hv_cEfj4ZHY67eaT1q-18">
          <mxGeometry x="55" y="167.3134328358209" width="30" height="40" as="geometry" />
        </mxCell>
        <mxCell id="Y3Hv_cEfj4ZHY67eaT1q-36" value="Front Brakes Replacement" style="text;html=1;align=left;verticalAlign=middle;resizable=0;points=[];autosize=1;strokeColor=none;fillColor=none;fontSize=20;" vertex="1" parent="Y3Hv_cEfj4ZHY67eaT1q-18">
          <mxGeometry x="115" y="220.1492537313433" width="260" height="40" as="geometry" />
        </mxCell>
        <mxCell id="Y3Hv_cEfj4ZHY67eaT1q-37" value="TBD" style="text;html=1;align=center;verticalAlign=middle;resizable=0;points=[];autosize=1;strokeColor=none;fillColor=none;fontSize=20;" vertex="1" parent="Y3Hv_cEfj4ZHY67eaT1q-18">
          <mxGeometry x="585" y="132.08955223880596" width="60" height="40" as="geometry" />
        </mxCell>
        <mxCell id="Y3Hv_cEfj4ZHY67eaT1q-38" value="TBD" style="text;html=1;align=center;verticalAlign=middle;resizable=0;points=[];autosize=1;strokeColor=none;fillColor=none;fontSize=20;" vertex="1" parent="Y3Hv_cEfj4ZHY67eaT1q-18">
          <mxGeometry x="585" y="176.11940298507463" width="60" height="40" as="geometry" />
        </mxCell>
        <mxCell id="Y3Hv_cEfj4ZHY67eaT1q-39" value="$125.00" style="text;html=1;align=center;verticalAlign=middle;resizable=0;points=[];autosize=1;strokeColor=none;fillColor=none;fontSize=20;" vertex="1" parent="Y3Hv_cEfj4ZHY67eaT1q-18">
          <mxGeometry x="565" y="220.1492537313433" width="100" height="40" as="geometry" />
        </mxCell>
        <mxCell id="Y3Hv_cEfj4ZHY67eaT1q-40" value="1" style="text;html=1;align=center;verticalAlign=middle;resizable=0;points=[];autosize=1;strokeColor=none;fillColor=none;fontSize=20;" vertex="1" parent="Y3Hv_cEfj4ZHY67eaT1q-18">
          <mxGeometry x="705" y="132.08955223880596" width="30" height="40" as="geometry" />
        </mxCell>
        <mxCell id="Y3Hv_cEfj4ZHY67eaT1q-41" value="2" style="text;html=1;align=center;verticalAlign=middle;resizable=0;points=[];autosize=1;strokeColor=none;fillColor=none;fontSize=20;" vertex="1" parent="Y3Hv_cEfj4ZHY67eaT1q-18">
          <mxGeometry x="705" y="176.11940298507463" width="30" height="40" as="geometry" />
        </mxCell>
        <mxCell id="Y3Hv_cEfj4ZHY67eaT1q-42" value="2" style="text;html=1;align=center;verticalAlign=middle;resizable=0;points=[];autosize=1;strokeColor=none;fillColor=none;fontSize=20;" vertex="1" parent="Y3Hv_cEfj4ZHY67eaT1q-18">
          <mxGeometry x="705" y="220.1492537313433" width="30" height="40" as="geometry" />
        </mxCell>
        <mxCell id="Y3Hv_cEfj4ZHY67eaT1q-43" value="TBD" style="text;html=1;align=center;verticalAlign=middle;resizable=0;points=[];autosize=1;strokeColor=none;fillColor=none;fontSize=20;" vertex="1" parent="Y3Hv_cEfj4ZHY67eaT1q-18">
          <mxGeometry x="795" y="132.08955223880596" width="60" height="40" as="geometry" />
        </mxCell>
        <mxCell id="Y3Hv_cEfj4ZHY67eaT1q-44" value="TBD" style="text;html=1;align=center;verticalAlign=middle;resizable=0;points=[];autosize=1;strokeColor=none;fillColor=none;fontSize=20;" vertex="1" parent="Y3Hv_cEfj4ZHY67eaT1q-18">
          <mxGeometry x="790" y="176.11940298507463" width="60" height="40" as="geometry" />
        </mxCell>
        <mxCell id="Y3Hv_cEfj4ZHY67eaT1q-45" value="$0.00" style="text;html=1;align=center;verticalAlign=middle;resizable=0;points=[];autosize=1;strokeColor=none;fillColor=none;fontSize=20;" vertex="1" parent="Y3Hv_cEfj4ZHY67eaT1q-18">
          <mxGeometry x="790" y="220.1492537313433" width="70" height="40" as="geometry" />
        </mxCell>
        <mxCell id="Y3Hv_cEfj4ZHY67eaT1q-46" value="TBD" style="text;html=1;align=center;verticalAlign=middle;resizable=0;points=[];autosize=1;strokeColor=none;fillColor=none;fontSize=20;" vertex="1" parent="Y3Hv_cEfj4ZHY67eaT1q-18">
          <mxGeometry x="935" y="132.08955223880596" width="60" height="40" as="geometry" />
        </mxCell>
        <mxCell id="Y3Hv_cEfj4ZHY67eaT1q-47" value="TBD" style="text;html=1;align=center;verticalAlign=middle;resizable=0;points=[];autosize=1;strokeColor=none;fillColor=none;fontSize=20;" vertex="1" parent="Y3Hv_cEfj4ZHY67eaT1q-18">
          <mxGeometry x="935" y="176.11940298507463" width="60" height="40" as="geometry" />
        </mxCell>
        <mxCell id="Y3Hv_cEfj4ZHY67eaT1q-48" value="$125.00" style="text;html=1;align=center;verticalAlign=middle;resizable=0;points=[];autosize=1;strokeColor=none;fillColor=none;fontSize=20;" vertex="1" parent="Y3Hv_cEfj4ZHY67eaT1q-18">
          <mxGeometry x="915" y="220.1492537313433" width="100" height="40" as="geometry" />
        </mxCell>
        <mxCell id="Y3Hv_cEfj4ZHY67eaT1q-51" value="Delete" style="strokeWidth=1;shadow=0;dashed=0;align=center;html=1;shape=mxgraph.mockup.buttons.button;strokeColor=#666666;fontColor=#ffffff;mainText=;buttonStyle=round;fontSize=17;fontStyle=1;fillColor=#FF0000;whiteSpace=wrap;" vertex="1" parent="Y3Hv_cEfj4ZHY67eaT1q-18">
          <mxGeometry x="1075" y="250.00223880597014" width="100" height="26.417910447761194" as="geometry" />
        </mxCell>
        <mxCell id="Y3Hv_cEfj4ZHY67eaT1q-52" value="" style="verticalLabelPosition=bottom;shadow=0;dashed=0;align=center;html=1;verticalAlign=top;strokeWidth=1;shape=mxgraph.mockup.markup.line;strokeColor=#999999;fontSize=20;fillColor=#FF0000;" vertex="1" parent="Y3Hv_cEfj4ZHY67eaT1q-18">
          <mxGeometry x="45" y="268.5820895522388" width="1020" height="17.611940298507463" as="geometry" />
        </mxCell>
        <mxCell id="Y3Hv_cEfj4ZHY67eaT1q-53" value="2" style="text;html=1;align=center;verticalAlign=middle;resizable=0;points=[];autosize=1;strokeColor=none;fillColor=none;fontSize=20;" vertex="1" parent="Y3Hv_cEfj4ZHY67eaT1q-18">
          <mxGeometry x="55" y="286.1940298507463" width="30" height="40" as="geometry" />
        </mxCell>
        <mxCell id="Y3Hv_cEfj4ZHY67eaT1q-54" value="Price" style="text;html=1;align=right;verticalAlign=middle;resizable=0;points=[];autosize=1;strokeColor=none;fillColor=none;fontSize=20;" vertex="1" parent="Y3Hv_cEfj4ZHY67eaT1q-18">
          <mxGeometry x="802.5" y="325.82089552238807" width="70" height="40" as="geometry" />
        </mxCell>
        <mxCell id="Y3Hv_cEfj4ZHY67eaT1q-55" value="Tax" style="text;html=1;align=right;verticalAlign=middle;resizable=0;points=[];autosize=1;strokeColor=none;fillColor=none;fontSize=20;" vertex="1" parent="Y3Hv_cEfj4ZHY67eaT1q-18">
          <mxGeometry x="822.5" y="361.04477611940297" width="50" height="40" as="geometry" />
        </mxCell>
        <mxCell id="Y3Hv_cEfj4ZHY67eaT1q-56" value="Total Price" style="text;html=1;align=right;verticalAlign=middle;resizable=0;points=[];autosize=1;strokeColor=none;fillColor=none;fontSize=20;" vertex="1" parent="Y3Hv_cEfj4ZHY67eaT1q-18">
          <mxGeometry x="752.5" y="396.2686567164179" width="120" height="40" as="geometry" />
        </mxCell>
        <mxCell id="Y3Hv_cEfj4ZHY67eaT1q-57" value="TBD" style="text;html=1;align=left;verticalAlign=middle;resizable=0;points=[];autosize=1;strokeColor=none;fillColor=none;fontSize=20;" vertex="1" parent="Y3Hv_cEfj4ZHY67eaT1q-18">
          <mxGeometry x="897.5" y="325.82089552238807" width="60" height="40" as="geometry" />
        </mxCell>
        <mxCell id="Y3Hv_cEfj4ZHY67eaT1q-58" value="TBD" style="text;html=1;align=left;verticalAlign=middle;resizable=0;points=[];autosize=1;strokeColor=none;fillColor=none;fontSize=20;" vertex="1" parent="Y3Hv_cEfj4ZHY67eaT1q-18">
          <mxGeometry x="897.5" y="361.04477611940297" width="60" height="40" as="geometry" />
        </mxCell>
        <mxCell id="Y3Hv_cEfj4ZHY67eaT1q-59" value="TBD" style="text;html=1;align=left;verticalAlign=middle;resizable=0;points=[];autosize=1;strokeColor=none;fillColor=none;fontSize=20;" vertex="1" parent="Y3Hv_cEfj4ZHY67eaT1q-18">
          <mxGeometry x="897.5" y="396.2686567164179" width="60" height="40" as="geometry" />
        </mxCell>
        <mxCell id="Y3Hv_cEfj4ZHY67eaT1q-60" value="Add Service" style="strokeWidth=1;shadow=0;dashed=0;align=center;html=1;shape=mxgraph.mockup.buttons.button;strokeColor=#666666;fontColor=#ffffff;mainText=;buttonStyle=round;fontSize=17;fontStyle=1;fillColor=#008cff;whiteSpace=wrap;" vertex="1" parent="Y3Hv_cEfj4ZHY67eaT1q-18">
          <mxGeometry x="915" y="449.1044776119403" width="150" height="44.02985074626866" as="geometry" />
        </mxCell>
        <mxCell id="Y3Hv_cEfj4ZHY67eaT1q-61" value="Category" style="strokeWidth=1;shadow=0;dashed=0;align=center;html=1;shape=mxgraph.mockup.forms.comboBox;strokeColor=#999999;fillColor=#ddeeff;align=left;fillColor2=#aaddff;mainText=;fontColor=#666666;fontSize=17;spacingLeft=3;" vertex="1" parent="Y3Hv_cEfj4ZHY67eaT1q-18">
          <mxGeometry x="45" y="457.910447761194" width="200" height="35.223880597014926" as="geometry" />
        </mxCell>
        <mxCell id="Y3Hv_cEfj4ZHY67eaT1q-62" value="Sub-Category" style="strokeWidth=1;shadow=0;dashed=0;align=center;html=1;shape=mxgraph.mockup.forms.comboBox;strokeColor=#999999;fillColor=#ddeeff;align=left;fillColor2=#aaddff;mainText=;fontColor=#666666;fontSize=17;spacingLeft=3;" vertex="1" parent="Y3Hv_cEfj4ZHY67eaT1q-18">
          <mxGeometry x="345" y="457.910447761194" width="200" height="35.223880597014926" as="geometry" />
        </mxCell>
        <mxCell id="Y3Hv_cEfj4ZHY67eaT1q-63" value="Service Category" style="strokeWidth=1;shadow=0;dashed=0;align=center;html=1;shape=mxgraph.mockup.forms.comboBox;strokeColor=#999999;fillColor=#ddeeff;align=left;fillColor2=#aaddff;mainText=;fontColor=#666666;fontSize=17;spacingLeft=3;" vertex="1" parent="Y3Hv_cEfj4ZHY67eaT1q-18">
          <mxGeometry x="625" y="457.910447761194" width="200" height="35.223880597014926" as="geometry" />
        </mxCell>
        <mxCell id="Y3Hv_cEfj4ZHY67eaT1q-64" value="&lt;font style=&quot;font-size: 18px;&quot;&gt;Service Category&lt;/font&gt;" style="text;html=1;align=left;verticalAlign=middle;resizable=0;points=[];autosize=1;strokeColor=none;fillColor=none;fontSize=22;" vertex="1" parent="Y3Hv_cEfj4ZHY67eaT1q-18">
          <mxGeometry x="25" y="422.6865671641791" width="160" height="40" as="geometry" />
        </mxCell>
        <mxCell id="Y3Hv_cEfj4ZHY67eaT1q-65" value="&lt;font style=&quot;font-size: 18px;&quot;&gt;Service Sub-Category&lt;/font&gt;" style="text;html=1;align=left;verticalAlign=middle;resizable=0;points=[];autosize=1;strokeColor=none;fillColor=none;fontSize=22;" vertex="1" parent="Y3Hv_cEfj4ZHY67eaT1q-18">
          <mxGeometry x="315" y="422.6865671641791" width="200" height="40" as="geometry" />
        </mxCell>
        <mxCell id="Y3Hv_cEfj4ZHY67eaT1q-66" value="&lt;font style=&quot;font-size: 18px;&quot;&gt;Options&lt;/font&gt;" style="text;html=1;align=left;verticalAlign=middle;resizable=0;points=[];autosize=1;strokeColor=none;fillColor=none;fontSize=22;" vertex="1" parent="Y3Hv_cEfj4ZHY67eaT1q-18">
          <mxGeometry x="595" y="422.6865671641791" width="90" height="40" as="geometry" />
        </mxCell>
        <mxCell id="Y3Hv_cEfj4ZHY67eaT1q-80" value="Front Brakes Pads" style="text;html=1;align=left;verticalAlign=middle;resizable=0;points=[];autosize=1;strokeColor=none;fillColor=none;fontSize=20;" vertex="1" parent="Y3Hv_cEfj4ZHY67eaT1q-18">
          <mxGeometry x="115" y="132.08925373134326" width="190" height="40" as="geometry" />
        </mxCell>
        <mxCell id="Y3Hv_cEfj4ZHY67eaT1q-81" value="Front Brakes Rotors" style="text;html=1;align=left;verticalAlign=middle;resizable=0;points=[];autosize=1;strokeColor=none;fillColor=none;fontSize=20;" vertex="1" parent="Y3Hv_cEfj4ZHY67eaT1q-18">
          <mxGeometry x="115" y="176.1192537313433" width="200" height="40" as="geometry" />
        </mxCell>
        <mxCell id="Y3Hv_cEfj4ZHY67eaT1q-67" value="&lt;font color=&quot;#0f0f0f&quot;&gt;Request Quote&lt;/font&gt;" style="strokeWidth=1;shadow=0;dashed=0;align=center;html=1;shape=mxgraph.mockup.buttons.button;strokeColor=#666666;fontColor=#ffffff;mainText=;buttonStyle=round;fontSize=17;fontStyle=1;fillColor=#66FF66;whiteSpace=wrap;" vertex="1" parent="Y3Hv_cEfj4ZHY67eaT1q-1">
          <mxGeometry x="1100" y="960" width="230" height="70" as="geometry" />
        </mxCell>
        <mxCell id="Y3Hv_cEfj4ZHY67eaT1q-68" value="&lt;h3&gt;Contact Details&lt;/h3&gt;" style="strokeWidth=1;shadow=0;dashed=0;align=center;html=1;shape=mxgraph.mockup.text.textBox;fontColor=#666666;align=left;fontSize=17;spacingLeft=4;spacingTop=-3;strokeColor=#666666;mainText=" vertex="1" parent="Y3Hv_cEfj4ZHY67eaT1q-1">
          <mxGeometry x="170" y="1115" width="160" height="30" as="geometry" />
        </mxCell>
        <mxCell id="Y3Hv_cEfj4ZHY67eaT1q-69" value="&lt;div style=&quot;text-align: center;&quot;&gt;&lt;span style=&quot;font-size: 15px; background-color: initial;&quot;&gt;Email Address: someEmail@gmail.com&lt;/span&gt;&lt;/div&gt;&lt;font style=&quot;font-size: 15px;&quot;&gt;&lt;div style=&quot;text-align: center;&quot;&gt;&lt;span style=&quot;background-color: initial;&quot;&gt;Phone Number: (437) 975-6985&lt;/span&gt;&lt;/div&gt;&lt;div style=&quot;text-align: center;&quot;&gt;&lt;span style=&quot;background-color: initial;&quot;&gt;Address: 517 Maple Road, North York, Ontario&lt;/span&gt;&lt;/div&gt;&lt;div style=&quot;text-align: center;&quot;&gt;&lt;span style=&quot;background-color: initial;&quot;&gt;Opening Hours:&lt;/span&gt;&lt;/div&gt;&lt;span style=&quot;white-space: pre;&quot;&gt;&lt;div style=&quot;text-align: center;&quot;&gt;&lt;span style=&quot;background-color: initial;&quot;&gt; &lt;/span&gt;&lt;span style=&quot;background-color: initial; white-space: normal;&quot;&gt;Monday to Friday - 8 to 5&lt;/span&gt;&lt;/div&gt;&lt;/span&gt;&lt;span style=&quot;white-space: pre;&quot;&gt;&lt;div style=&quot;text-align: center;&quot;&gt;&lt;span style=&quot;background-color: initial;&quot;&gt; &lt;/span&gt;&lt;span style=&quot;background-color: initial; white-space: normal;&quot;&gt;Weekends - 9 to 5&lt;/span&gt;&lt;/div&gt;&lt;/span&gt;&lt;/font&gt;" style="text;spacingTop=-5;whiteSpace=wrap;html=1;align=left;fontSize=12;fontFamily=Helvetica;fillColor=none;strokeColor=none;" vertex="1" parent="Y3Hv_cEfj4ZHY67eaT1q-1">
          <mxGeometry x="80" y="1155" width="360" height="100" as="geometry" />
        </mxCell>
        <mxCell id="Y3Hv_cEfj4ZHY67eaT1q-70" value="" style="verticalLabelPosition=bottom;shadow=0;dashed=0;align=center;html=1;verticalAlign=top;strokeWidth=1;shape=mxgraph.mockup.markup.line;strokeColor=#999999;direction=north;fontSize=32;" vertex="1" parent="Y3Hv_cEfj4ZHY67eaT1q-1">
          <mxGeometry x="430" y="1105" width="20" height="170" as="geometry" />
        </mxCell>
        <mxCell id="Y3Hv_cEfj4ZHY67eaT1q-71" value="Powered By: Auto Quotes Co." style="text;html=1;align=center;verticalAlign=middle;resizable=0;points=[];autosize=1;strokeColor=none;fillColor=none;fontSize=15;" vertex="1" parent="Y3Hv_cEfj4ZHY67eaT1q-1">
          <mxGeometry x="1130" y="1245" width="220" height="30" as="geometry" />
        </mxCell>
        <mxCell id="Y3Hv_cEfj4ZHY67eaT1q-72" value="&lt;h3&gt;Terms of Service&lt;/h3&gt;" style="strokeWidth=1;shadow=0;dashed=0;align=center;html=1;shape=mxgraph.mockup.text.textBox;fontColor=#666666;align=left;fontSize=17;spacingLeft=4;spacingTop=-3;strokeColor=#666666;mainText=" vertex="1" parent="Y3Hv_cEfj4ZHY67eaT1q-1">
          <mxGeometry x="820" y="1115" width="175" height="30" as="geometry" />
        </mxCell>
        <mxCell id="Y3Hv_cEfj4ZHY67eaT1q-73" value="Privacy Policy&lt;br&gt;Return Policy&lt;br&gt;Terms and Conditions" style="text;html=1;align=center;verticalAlign=top;resizable=0;points=[];autosize=1;strokeColor=none;fillColor=none;fontSize=15;" vertex="1" parent="Y3Hv_cEfj4ZHY67eaT1q-1">
          <mxGeometry x="822.5" y="1155" width="170" height="70" as="geometry" />
        </mxCell>
        <mxCell id="Y3Hv_cEfj4ZHY67eaT1q-74" value="" style="verticalLabelPosition=bottom;verticalAlign=top;html=1;shape=mxgraph.basic.polygon;polyCoords=[[0.25,0],[0.75,0],[1,0.25],[1,0.75],[0.75,1],[0.25,1],[0,0.75],[0,0.25]];polyline=0;fontSize=15;" vertex="1" parent="Y3Hv_cEfj4ZHY67eaT1q-1">
          <mxGeometry x="1190" y="1125" width="100" height="100" as="geometry" />
        </mxCell>
        <mxCell id="Y3Hv_cEfj4ZHY67eaT1q-75" value="Auto Quotes&lt;br&gt;Logo" style="text;html=1;align=center;verticalAlign=middle;resizable=0;points=[];autosize=1;strokeColor=none;fillColor=none;fontSize=15;" vertex="1" parent="Y3Hv_cEfj4ZHY67eaT1q-1">
          <mxGeometry x="1185" y="1150" width="110" height="50" as="geometry" />
        </mxCell>
        <mxCell id="Y3Hv_cEfj4ZHY67eaT1q-76" value="" style="verticalLabelPosition=bottom;shadow=0;dashed=0;align=center;html=1;verticalAlign=top;strokeWidth=1;shape=mxgraph.mockup.markup.line;strokeColor=#999999;direction=north;fontSize=15;" vertex="1" parent="Y3Hv_cEfj4ZHY67eaT1q-1">
          <mxGeometry x="710" y="1105" width="20" height="170" as="geometry" />
        </mxCell>
        <mxCell id="Y3Hv_cEfj4ZHY67eaT1q-77" value="&lt;h3&gt;Navigation&lt;/h3&gt;" style="strokeWidth=1;shadow=0;dashed=0;align=center;html=1;shape=mxgraph.mockup.text.textBox;fontColor=#666666;align=left;fontSize=17;spacingLeft=4;spacingTop=-3;strokeColor=#666666;mainText=" vertex="1" parent="Y3Hv_cEfj4ZHY67eaT1q-1">
          <mxGeometry x="525" y="1115" width="110" height="30" as="geometry" />
        </mxCell>
        <mxCell id="Y3Hv_cEfj4ZHY67eaT1q-78" value="" style="verticalLabelPosition=bottom;shadow=0;dashed=0;align=center;html=1;verticalAlign=top;strokeWidth=1;shape=mxgraph.mockup.markup.line;strokeColor=#999999;direction=north;fontSize=15;" vertex="1" parent="Y3Hv_cEfj4ZHY67eaT1q-1">
          <mxGeometry x="1060" y="1105" width="20" height="170" as="geometry" />
        </mxCell>
        <mxCell id="Y3Hv_cEfj4ZHY67eaT1q-79" value="Get a Quote&lt;br&gt;About us" style="text;html=1;align=center;verticalAlign=middle;resizable=0;points=[];autosize=1;strokeColor=none;fillColor=none;fontSize=15;" vertex="1" parent="Y3Hv_cEfj4ZHY67eaT1q-1">
          <mxGeometry x="525" y="1155" width="110" height="50" as="geometry" />
        </mxCell>
        <mxCell id="Y3Hv_cEfj4ZHY67eaT1q-82" value="" style="shape=image;html=1;verticalAlign=top;verticalLabelPosition=bottom;labelBackgroundColor=#ffffff;imageAspect=0;aspect=fixed;image=https://cdn3.iconfinder.com/data/icons/essential-rounded/64/Rounded-31-128.png" vertex="1" parent="Y3Hv_cEfj4ZHY67eaT1q-1">
          <mxGeometry x="1350" y="140.5" width="44" height="44" as="geometry" />
        </mxCell>
        <mxCell id="Y3Hv_cEfj4ZHY67eaT1q-83" value="" style="shape=image;html=1;verticalAlign=top;verticalLabelPosition=bottom;labelBackgroundColor=#ffffff;imageAspect=0;aspect=fixed;image=https://cdn3.iconfinder.com/data/icons/user-interface-169/32/login-128.png" vertex="1" parent="Y3Hv_cEfj4ZHY67eaT1q-1">
          <mxGeometry x="1400" y="140" width="45" height="45" as="geometry" />
        </mxCell>
        <mxCell id="Y3Hv_cEfj4ZHY67eaT1q-84" value="UserName" style="text;strokeColor=none;fillColor=none;html=1;fontSize=24;fontStyle=1;verticalAlign=middle;align=center;" vertex="1" parent="Y3Hv_cEfj4ZHY67eaT1q-1">
          <mxGeometry x="1210" y="142.5" width="120" height="40" as="geometry" />
        </mxCell>
      </root>
    </mxGraphModel>
  </diagram>
</mxfile>
